<svg xmlns="http://www.w3.org/2000/svg" viewBox="0 0 48 48" width="48" height="48">
  <defs>
    <linearGradient id="bg" x1="0%" y1="0%" x2="100%" y2="100%">
      <stop offset="0%" stop-color="#1A1308"/>
      <stop offset="100%" stop-color="#110D08"/>
    </linearGradient>
    <linearGradient id="leaf" x1="0%" y1="0%" x2="100%" y2="100%">
      <stop offset="0%" stop-color="#D4A843"/>
      <stop offset="100%" stop-color="#C4A347"/>
    </linearGradient>
  </defs>
  <rect width="48" height="48" rx="10" fill="url(#bg)" stroke="#C4A347" stroke-width="1.5" stroke-opacity="0.3"/>
  <g transform="translate(12, 11) scale(1.1)">
    <path d="M12 3C7 3 3 7.5 3 12.5c0 3 1.5 5.5 4 7 .5-4.5 3-8 7-10 .5-.3 1 .2.7.7-2.5 4-3.5 8-3.2 11.3C12.2 21.8 13 22 14 22c5 0 8-4 8-9C22 7 17 3 12 3z" fill="url(#leaf)" opacity="0.35"/>
    <path d="M13 2C8.5 2 4 5.5 4 10.5c0 4 2.5 7.5 6.5 9 .3-5 2.5-9.5 6.5-12.5.5-.4 1.1.1.8.7C15.5 12 14 16.5 13.5 21c.5.1 1 .1 1.5.1C20 21.1 22 17 22 13 22 7 18 2 13 2z" fill="url(#leaf)"/>
  </g>
</svg>
